<?xml version="1.0" encoding="UTF-8"?>
<svg id="Layer_1" data-name="Layer 1" xmlns="http://www.w3.org/2000/svg" viewBox="0 0 677 130.82">
  <path d="M51,48.12c10.85-12.14,20.39-25.98,32.98-36.51,4.02-3.37,18.93-14.37,21.81-4.8,3.2,10.64-11.4,31.96-15.63,41.98-.39.92-2.18,2.55-.67,3.33,12.71-13.86,24.18-29.23,39.03-40.97,4.89-3.87,16.65-13.62,22.56-8.61,3.83,3.24,1.33,8.19-.23,11.94-10.37,24.83-37.75,50.83-41.59,79.41-1.61,11.95,1.95,18.01,14.48,13.48,3.99-1.44,7.77-6.38,9.78-7.23,3.67-1.54-.36,7-3.51,6-.26,1.34.38,1.04,1.5,1.02,9.49-.18,24.66-4.61,35.12-5.9,37.84-4.67,77.12-4.42,114.84.86,8.97-6.66,22.13-10.4,27.69-20.33.61-1.1,2.67-3.57,1.35-4.65-5.66,5.3-11.46,13.99-20.51,11.51l-2.48-6.5c-10.93,11.48-26.22,12.64-15.32-7.31,1.75-3.21,6.8-8.7,7.79-11.21.82-2.08-2.22-1.71-3.53-1.53-4.66.63-8.97,9.03-12.43,12.57-7.62,7.8-31.77,27.32-34.52,6.48-6.01,3.88-14.02,14.63-21.04,6.98-2.34-4.79,7.29-17.74,9.58-22.45.46-.94,1.89-2.79.46-3.54-7.05,4.8-13.82,11.12-19.53,17.47-2.66,2.95-7.06,12.28-10.68,10.8-6.49-2.66.13-9.82,2.7-13.78-7.89-1.77-6.32,2.43-9.16,6.84-4.08,6.35-18.09,11.97-22.72,4.03-5.06-8.69,11.81-13.42,17.89-12.37l-1.02-15c-4.69,4.48-8.25,10.05-12.98,14.51-6.04,5.7-24.3,20.43-32.59,14.56-9.05-11.42,9.93-33.57,21.16-34.99,3.34-.42,7.58-.79,8.39,3.44,2.27,11.88-14.58,19.15-23.53,22.41-1.43,3.85-.01,5.34,3.94,5.02,9.92-.8,26.64-18.75,32.45-26.63,4.3-5.83,8.83-20.85,17.15-12.83-9.57,7.47-7.94,16.3-5.1,26.92l8.88-.65c4.7-8.42,31.96-59.07,37.96-60.63,1.91-.5,3.49.58,5.27.88l-.51,2.95c-7.49,10.88-15.12,21.77-21.89,33.12-2.82,4.72-10.17,15.99-11.57,20.44-.16.51-.27,1.63.48,1.48,3.42-3.43,20.7-21.14,25.02-14.01,4.05,6.69-13.34,21.07-11.51,29.01,13.03-3.95,16.63-18.31,26.52-25.97,17.35-13.45,26.98,1.2,9.8,13.8-4.98,3.65-10.2,4.72-15.26,7.81l1.6,4.41c7.98,2.63,30.24-19.3,31.06-24.69.2-1.35-.91-3.14-.78-4.82.3-3.7,3.09-10.97,7.53-10.61l2.38,1.73-1.86,9.34c25.34-1.62-2.27,16.79-1,28,12.9.56,20.77-26.13,27.26-29.28,1.61-.78,6.17-.83,5.74,1.76-.76,4.66-11.96,16.82-13.58,23.48-.4,1.66-.2,3.08,2.05,3.05,2.67-.03,14.74-12.29,17.03-15,4.55-5.37,10.09-19.91,17.52-14.47l-18.02,29.97h8.99c-2.69,2.69-7.71,2.27-10.53,4.46-.78.6-10.15,15.52-10.46,16.55-.87,2.93,6.7.42,6.98,3.47l-8.82-.83c-3.57,8.03-23.49,31.47-32.64,20.8-6.48-7.55,5.79-18.68,10.47-23.96-58.6-6.81-118.88-1.35-175.02,16.57l-1.95-5.54,7.96-3.55c-4.13-1.44-7.23-4.57-7.93-9.06-3.99-25.61,28.67-64.46,40.1-86.77,1.23-2.41,3-4.81,2.83-7.66-1.73-.27-3.13.2-4.73.77-14.2,5.07-46.43,42.73-56.09,55.91-5.97,8.16-10.92,16.9-16.67,25.18l-4.03-2.87-.03-4.02c9.26-17.42,20.45-34.57,28.41-52.62,1.88-4.25,6.51-14.06,6.96-18.11.19-1.73.11-2.18-1.34-3.25-14.97,6.7-27.12,20.99-37.45,33.53-12.82,15.57-23.34,32.63-34.52,49.35-1.73-1.7-5.09-2.27-4.39-5.16,10.96-20.78,28.31-44.46,33.59-67.51,3.72-16.25-1.74-18.48-16.23-13.23S9.68,24.42,2.48,38.12l-2.48-2.44C7.42,18.98,35.57-3.07,54.26.36c19.46,3.57,1.08,37.61-3.26,47.76ZM155.99,59.12c-5.49-2.66-19.77,14.88-17.99,16.99,4.15.18,21.16-13.93,17.99-16.99ZM257.99,59.12c-5.41-2.39-20.39,13.9-17.99,16.99,7.48-3.46,16.03-8.35,17.99-16.99ZM175.99,79.12c-3.25.39-14.18,1.91-11.54,6.99s12.33-2.05,11.54-6.99ZM301.99,94.13c-.66-.6-13.04,7.04-14,8.98l7.98.57,6.02-9.55ZM293.99,106.13c-4-.5-7.66-2.23-11.54-.05s-14.07,13.89-11.03,18.1c4.01,2.91,8.93-1.38,12.05-4.09,1.65-1.44,11.67-12.69,10.53-13.96Z"/>
  <path d="M530,70.12c4.55-3.7,18.94-19.23,25-15.52,1.4.86,1.81,3.02,1.58,4.56-.63,4.35-14.7,22.86-12.59,24.96,13.69-2.54,17.27-19.21,27.27-26.22,6.53-4.58,13.61-6.74,17.74,1.79,1.56.72,10.5-3.25,10.81-3.74.63-1,1.73-12.56,6.56-11.76,4.55.75,1.97,9.08.63,11.94l10.56.94c4.18,5.98-13.1,19.71-11.56,27.06.79.08,1.54.02,2.32-.16,5.1-1.22,21.19-20.95,24.9-26.1,3.18-4.41,8.45-18.81,15.34-13.79,4.11,3-4.37,6.47-5.35,10.77-1.25,5.48.98,10.88.79,16.3l14-.99c-2.24,3.72-10.2,2.48-12.99,4.5-1.31.94-2.63,8.19-4.99,11.01-6.64,7.89-25.38,8.09-21.02-5.51-.71-.89-12.22,14.36-19.56,9.07-7.88-5.67,7.95-20.34,9.56-25.59.6-1.97-4.78-2.21-5.54-2.09-.97.15-9.75,12.82-12.44,15.12-3.79,3.24-6.6,3.07-9.94,5.06-3.06,1.83-5.24,5.78-9.38,7.61-9.22,4.07-14.38-.51-14.18-10.18-3.32,4.07-18.05,17.06-22.02,8.99-3-6.09,8.87-19.8,11.51-25.5.21-.68-.82-.69-1.47-.48-3.69,1.16-15.47,12.98-18.55,16.46-1.66,1.88-8.53,12.25-9.46,12.33-2.55.22-5.58-4.12-3.52-6.8-7.37,7.21-21.1,11.77-17-4-6.57,6.9-25.08,19.85-20,0-16.09,14.58-29.49,15.85-15.79-9.3,2.74-5.03,10.57-21.39,16.77-14.21.1,1.39-12.31,18.75-13.52,23.47-.51,1.99-.89,2.63,1.04,4.01,8.79-1.19,24.5-29.57,29.03-30,1.57-.15,2.96.92,4.47,1.03.96,1.33-16.03,24.05-14.99,28.98,17.95-4.85,21.76-27.23,31.99-40.5-14.79-1.45-29.74.19-44.36,2.42l-1.67-2.43,1.03-2c14.94-4.24,30.89-1.54,46.31-1.47,3.41-.92,8.68-23.98,17.26-15.04l-7.57,14.51,8.01.51v2.99c-4.16.54-9.42-1.66-12.47,2.04-4.28,5.19-13.37,23.31-16.02,29.98-.55,1.38-3.16,8.37-2.51,8.98,1.1.09,2.17.08,3.25-.24,11.39-3.32,27.3-37.59,34.33-48.67,2.61-4.11,15.34-24.78,18.97-25.13,1.72-.3,4.61,1.5,4.32,3.36l-34.85,56.68ZM585.99,58.13c-8.63-3.21-24.64,21.61-19.06,25.56s16.44-10.24,16.91-15.34c.23-2.54-2.66-3.88-1.76-6.57l3.91-3.65ZM599.99,60.13l-10.9,3.09c.83,5.71-2.56,8.99-4.09,13.9,6.78-3.71,10.7-10.81,14.99-16.99ZM636.92,73.05l-1.42-12.92-14.5,17.99,15.92-5.06ZM635.99,78.12c-3.44.42-15.11,3.1-11.57,8.07,6.14,3.62,10.46-2.47,11.57-8.07Z"/>
  <path d="M454.99,56.11c2.32-.13,5.3-.11,5,3-1.96.2-4.51-.46-6.34.17-3.18,1.08-10.75,25.86-11.56,30.44-.49,2.79,1.05,10.6-2.63,11.39-4.55.98-4.72-14.37-5.53-17.43-2.13-8.02-8.57-15.71-16.46-18.55-13.94,11.31-25.56,27.65-43.7,33.27-18.04,5.59-36.12-2.74-27.52-23.52,5.29-12.78,26.5-26.01,40.2-26.8,1.39-.08,10.54.35,6.55,2.55-1.09.6-10.34,1.28-13.78,2.23-11.14,3.07-28.74,14.3-30.26,26.73-.68,5.5.33,12.88,6.73,14.32,19.79,4.43,43.91-17.28,56.29-30.78-11.3-.52-22.56.66-33.38,4.07-6.12-7.44,8.79-8.25,14.01-8.95,8.76-1.17,17.58-.83,26.35-1.65,16.04-15.55,29.48-34.11,47.7-47.3,3.71-2.68,11.02-7.94,15.27-8.76,9.99-1.94,2.68,4.85.63,7.66-10.8,14.86-20.21,31.1-27.59,47.91ZM424.99,56.12h20.5l33.99-51.01c-22.22,11.99-37.87,32.62-54.49,51.01ZM443.99,60.12l-23.99,1.49,9.5,7.49,7.48,11,7.01-19.99Z"/>
  <path d="M676.99,102.13c.26,1.71-2.38,1.07-3.47.98-14.97-1.24-29.95-3.21-44.98-4.03h-64.08c-41.78,2.66-83.78,7.01-123.99,18.81l-2.38-4.16c.51-2.29,15.03-5.2,18.1-5.92,17.33-4.07,35.61-6.81,53.32-8.68,54.73-5.77,113.08-4.42,167.49,3.01Z"/>
</svg>